:SAMPLES-PER-SECOND 30
:FULLY-SPECIFIED
:DEGREES
1262
root  40.6654 37.9361 20.6714 179.654 -9.58476 175.971
RightUpLeg  -18.5127 -8.82803 -7.74111
RightLeg  30.8524 5.74817 3.45574
RightFoot  -10.0667 -0.0712162 0.233252
RightToes  1.33877e-009 0 -3.6325e-017
Spine  22.6755 -3.67836 11.8813
Spine1  8.88194 0.0398298 -6.75046
HEad  -27.9263 46.9939 -39.758
LeftShoulder1  0.482283 2.09093 -27.9956
LeftArm  -6.51407 -18.7099 -35.6992
LeftForeArm  24.9453 -75.1528 -47.9662
LeftHand  -0.10742 -0.141183 2.28909
RightShoulder  -0.0408681 -3.61691 22.9075
RightArm  -16.7447 -5.27287 28.5392
RightForeArm  92.7759 74.8824 130.048
RightHand  -0.779202 4.96883 -9.00655
LeftUpLeg  -23.5689 7.80684 4.05482
LeftLeg  33.2526 -4.30277 -2.67423
LeftFoot  -11.6701 0.0569654 -4.56901
LeftToes  -1.45701e-009 4.75788e-011 -4.21586e-011
1263
root  40.0278 38.0842 20.8237 -179.971 -8.75929 175.293
RightUpLeg  -18.3003 -7.99035 -9.51844
RightLeg  29.2235 6.10532 3.44847
RightFoot  -9.04785 -0.093403 1.59559
RightToes  1.33877e-009 0 -3.6325e-017
Spine  23.3446 -3.71899 11.4172
Spine1  8.43506 -0.0429347 -6.75982
HEad  -28.772 47.2148 -40.9851
LeftShoulder1  0.475433 2.11422 -28.0742
LeftArm  -6.82895 -18.8683 -35.9512
LeftForeArm  24.6227 -75.1423 -48.0131
LeftHand  -0.108428 -0.00640538 2.35455
RightShoulder  -0.103898 -3.83139 23.0188
RightArm  -16.8024 -5.13968 28.5589
RightForeArm  94.0676 74.678 131.046
RightHand  -0.713416 4.66834 -8.50791
LeftUpLeg  -22.7488 7.54808 6.04053
LeftLeg  30.2832 -5.61529 -3.20084
LeftFoot  -11.3147 0.0689109 -5.10318
LeftToes  -1.45701e-009 4.75788e-011 -4.21586e-011
1264
root  39.3488 38.165 20.9585 -179.585 -8.16578 174.499
RightUpLeg  -18.2892 -7.68188 -11.4988
RightLeg  28.109 6.68764 3.62942
RightFoot  -8.26286 -0.130886 2.79993
RightToes  1.33877e-009 0 -3.6325e-017
Spine  23.2401 -3.78695 10.8044
Spine1  9.01562 -0.150584 -6.96609
HEad  -29.9477 47.0747 -42.164
LeftShoulder1  0.473309 2.10402 -27.6699
LeftArm  -7.27713 -19.1134 -36.5184
LeftForeArm  25.3366 -75.2485 -48.4137
LeftHand  -0.108797 -0.0562395 2.34608
RightShoulder  -0.0828169 -3.7637 22.5824
RightArm  -17.1646 -5.01092 28.9917
RightForeArm  94.2833 74.6044 131.352
RightHand  -0.741715 4.84794 -8.69007
LeftUpLeg  -21.9859 7.18681 7.98899
LeftLeg  27.5205 -5.71764 -2.89349
LeftFoot  -10.714 0.091525 -5.00887
LeftToes  -1.45701e-009 4.75788e-011 -4.21586e-011
1265
root  38.6437 38.1578 21.0818 -179.592 -7.68273 173.896
RightUpLeg  -18.2644 -7.18894 -13.3775
RightLeg  27.8015 6.98798 3.75431
RightFoot  -7.75943 -0.164118 3.56788
RightToes  1.33877e-009 0 -3.6325e-017
Spine  23.6568 -3.89565 10.0409
Spine1  8.89915 -0.365696 -6.98065
HEad  -30.1101 47.5738 -42.5663
LeftShoulder1  0.507418 1.98944 -27.3463
LeftArm  -7.73659 -19.2098 -36.5982
LeftForeArm  25.5684 -75.2879 -48.576
LeftHand  -0.0868889 -0.0720306 1.87218
RightShoulder  -0.0576871 -3.67795 22.4487
RightArm  -17.4811 -4.91511 29.2427
RightForeArm  95.478 74.5775 131.652
RightHand  -0.657357 4.07093 -8.30877
LeftUpLeg  -20.907 6.46368 10.3186
LeftLeg  25.0466 -5.23291 -2.33418
LeftFoot  -10.1942 0.106461 -4.5492
LeftToes  -1.45701e-009 4.75788e-011 -4.21586e-011
1266
root  37.9067 38.0525 21.188 -179.587 -7.45776 173.602
RightUpLeg  -18.3682 -6.11935 -15.0124
RightLeg  27.811 6.59984 3.53677
RightFoot  -7.80912 -0.208705 5.04408
RightToes  1.33877e-009 0 -3.6325e-017
Spine  23.6204 -4.00912 9.2912
Spine1  9.15952 -0.659988 -6.80008
HEad  -29.906 48.1709 -42.8271
LeftShoulder1  0.542791 1.88791 -27.4419
LeftArm  -7.90099 -19.4439 -36.4636
LeftForeArm  25.6709 -75.2709 -48.4403
LeftHand  -0.0891951 -0.0424776 1.92526
RightShoulder  -0.0710191 -3.72499 22.3689
RightArm  -17.6789 -4.42513 29.6146
RightForeArm  95.4611 74.6537 131.373
RightHand  -0.583447 3.53469 -7.80989
LeftUpLeg  -20.0053 5.06511 12.9196
LeftLeg  22.713 -4.04614 -1.53315
LeftFoot  -9.51529 0.121236 -4.02002
LeftToes  -1.45701e-009 4.75788e-011 -4.21586e-011
1267
root  37.0918 37.8594 21.3145 179.946 -7.37133 173.452
RightUpLeg  -18.3102 -5.39312 -16.708
RightLeg  28.5196 6.50792 3.59095
RightFoot  -8.07614 -0.232719 6.24206
RightToes  1.33877e-009 0 -3.6325e-017
Spine  23.899 -4.18469 8.746
Spine1  9.42333 -0.940475 -6.68068
HEad  -29.6763 48.761 -42.9104
LeftShoulder1  0.551726 1.84815 -27.1627
LeftArm  -8.23095 -19.8764 -36.8578
LeftForeArm  25.4405 -75.2183 -48.2003
LeftHand  -0.108787 -0.0421916 2.35194
RightShoulder  -0.0515627 -3.65708 22.154
RightArm  -18.0445 -4.33061 30.0815
RightForeArm  94.6376 74.5627 131.564
RightHand  -0.699408 4.22006 -8.69607
LeftUpLeg  -18.5946 3.05534 15.4338
LeftLeg  20.1693 -2.64013 -0.746487
LeftFoot  -8.99056 0.124512 -3.44539
LeftToes  -1.45701e-009 4.75788e-011 -4.21586e-011
1268
root  36.2145 37.5878 21.4174 179.53 -7.32298 173.438
RightUpLeg  -18.4283 -4.68318 -18.3819
RightLeg  29.5598 6.39259 3.67827
RightFoot  -8.60543 -0.240081 7.58991
RightToes  1.33877e-009 0 -3.6325e-017
Spine  23.9433 -4.2739 8.072
Spine1  9.73418 -1.2182 -6.44226
HEad  -29.7092 49.0888 -43.0565
LeftShoulder1  0.564757 1.82106 -27.4078
LeftArm  -8.52009 -20.3182 -36.6901
LeftForeArm  25.3409 -75.1545 -47.8572
LeftHand  -0.105354 0.0743813 2.31263
RightShoulder  0.0167768 -3.41844 21.6132
RightArm  -18.9054 -4.6461 30.9456
RightForeArm  96.5049 74.5118 132.059
RightHand  -0.562268 3.41639 -7.66006
LeftUpLeg  -17.3934 1.43282 17.6
LeftLeg  17.9938 -1.71935 -0.268969
LeftFoot  -8.82542 0.10819 -2.50673
LeftToes  -1.45701e-009 4.75788e-011 -4.21586e-011
1269
root  35.2761 37.259 21.5207 179.15 -7.10043 173.81
RightUpLeg  -18.7052 -3.82621 -19.7269
RightLeg  30.5814 6.34206 3.80292
RightFoot  -9.14387 -0.234605 8.9804
RightToes  1.33877e-009 0 -3.6325e-017
Spine  23.6979 -4.27338 7.79263
Spine1  10.4122 -1.17303 -6.77551
HEad  -30.058 49.2433 -42.996
LeftShoulder1  0.550209 1.84745 -27.0702
LeftArm  -8.76908 -20.7919 -37.1227
LeftForeArm  25.4971 -75.1752 -47.9289
LeftHand  -0.125974 -0.40473 2.5987
RightShoulder  -0.068457 -3.71713 22.1676
RightArm  -19.3202 -4.34379 31.1414
RightForeArm  97.5908 74.3281 132.882
RightHand  -0.568122 3.67277 -7.51399
LeftUpLeg  -16.5364 1.34803 19.3485
LeftLeg  16.7716 -0.415682 0.4318
LeftFoot  -8.83746 0.106505 -2.4412
LeftToes  -1.45701e-009 4.75788e-011 -4.21586e-011
1270
root  34.204 36.9107 21.6144 178.65 -6.82415 174.323
RightUpLeg  -18.6042 -3.20683 -21.1679
RightLeg  31.088 6.62031 4.05919
RightFoot  -9.53599 -0.23498 10.7533
RightToes  1.33877e-009 0 -3.6325e-017
Spine  23.5417 -4.23422 7.47315
Spine1  10.9764 -1.17467 -6.81799
HEad  -30.091 49.7605 -42.7357
LeftShoulder1  0.598208 1.68062 -26.6353
LeftArm  -9.28184 -20.7365 -37.5569
LeftForeArm  26.1519 -75.2944 -48.4248
LeftHand  -0.121617 0.169109 2.68634
RightShoulder  -0.130401 -3.92775 22.6244
RightArm  -19.6741 -4.19758 31.1454
RightForeArm  98.4614 74.2599 133.257
RightHand  -0.484447 3.08561 -6.87435
LeftUpLeg  -15.7221 3.10302 20.2753
LeftLeg  16.4688 0.417207 0.856509
LeftFoot  -8.63916 0.113853 -2.63581
LeftToes  -1.45701e-009 4.75788e-011 -4.21586e-011
1271
root  32.9969 36.5518 21.7386 178.391 -6.6338 175.21
RightUpLeg  -18.4301 -2.62347 -22.4057
RightLeg  30.8453 6.79301 4.13102
RightFoot  -9.51709 -0.267819 12.6651
RightToes  1.33877e-009 0 -3.6325e-017
Spine  23.4013 -4.32378 7.45427
Spine1  11.1447 -1.27581 -6.88055
HEad  -31.209 49.7486 -43.0211
LeftShoulder1  0.567962 1.77327 -26.6527
LeftArm  -9.48229 -20.8334 -37.8845
LeftForeArm  27.3168 -75.4037 -48.707
LeftHand  -0.079584 0.314345 1.79438
RightShoulder  -0.128568 -3.92142 22.5996
RightArm  -19.9227 -4.6458 31.4871
RightForeArm  99.708 74.0233 134.237
RightHand  -0.513197 2.91222 -7.4077
LeftUpLeg  -15.6503 4.94777 20.7311
LeftLeg  17.8363 2.4524 1.33745
LeftFoot  -8.4118 0.0954761 -1.9797
LeftToes  -1.45701e-009 4.75788e-011 -4.21586e-011
1272
root  31.6716 36.2484 21.8739 178.04 -6.33718 176.067
RightUpLeg  -17.6106 -1.87725 -23.8201
RightLeg  29.3711 6.99545 4.01471
RightFoot  -8.9238 -0.372242 14.6165
RightToes  1.33877e-009 0 -3.6325e-017
Spine  23.3975 -4.26942 7.10276
Spine1  11.5307 -1.3099 -6.8231
HEad  -32.4312 49.3614 -43.2481
LeftShoulder1  0.605492 1.6439 -26.368
LeftArm  -9.73972 -20.7626 -38.5426
LeftForeArm  28.1199 -75.6038 -49.7114
LeftHand  -0.106993 -0.0382298 2.30873
RightShoulder  -0.109465 -3.85356 22.7469
RightArm  -20.1998 -5.15229 31.0508
RightForeArm  100.405 73.665 135.473
RightHand  -0.527251 3.91059 -6.83009
LeftUpLeg  -15.8114 7.10167 20.3595
LeftLeg  20.3501 3.17946 1.63326
LeftFoot  -7.39704 0.21132 -4.08606
LeftToes  -1.45701e-009 4.75788e-011 -4.21586e-011
1273
root  30.2242 35.9587 22.0218 177.842 -5.95083 176.759
RightUpLeg  -16.6361 -0.599484 -25.5445
RightLeg  27.1338 6.77869 3.54339
RightFoot  -7.89369 -0.543702 16.1951
RightToes  1.33877e-009 0 -3.6325e-017
Spine  23.6757 -4.04976 6.24972
Spine1  11.3608 -1.45059 -6.14046
HEad  -33.3687 49.5534 -43.2535
LeftShoulder1  0.515556 1.92284 -26.4435
LeftArm  -9.75172 -21.0841 -38.6973
LeftForeArm  29.4758 -75.8694 -51.0234
LeftHand  -0.076961 0.384657 1.7629
RightShoulder  -0.0482817 -3.64429 22.6442
RightArm  -20.7051 -5.99959 30.9526
RightForeArm  101.165 73.4407 136.259
RightHand  -0.471008 3.66974 -6.28798
LeftUpLeg  -17.207 8.64802 19.89
LeftLeg  23.3289 1.30266 0.89339
LeftFoot  -4.19511 0.749854 -11.8168
LeftToes  -1.45701e-009 4.75788e-011 -4.21586e-011
1274
root  28.7088 35.6859 22.1436 177.975 -5.95902 177.452
RightUpLeg  -15.5999 1.59355 -27.2759
RightLeg  24.596 5.19423 2.3783
RightFoot  -6.98009 -0.670194 16.2916
RightToes  1.33877e-009 0 -3.6325e-017
Spine  23.6279 -3.516 5.37901
Spine1  11.1284 -1.63042 -4.05654
HEad  -34.0976 48.7078 -42.4924
LeftShoulder1  0.474506 2.05965 -26.7176
LeftArm  -9.05909 -22.0437 -38.8003
LeftForeArm  28.9435 -75.7552 -50.4267
LeftHand  -0.0808773 -0.00477795 1.75014
RightShoulder  -0.0707059 -3.72064 22.7108
RightArm  -21.4152 -7.65663 31.0995
RightForeArm  102.915 73.0953 137.504
RightHand  -0.464039 3.60313 -6.23936
LeftUpLeg  -20.6672 12.6667 18.3167
LeftLeg  28.7575 -3.24347 -1.56699
LeftFoot  -1.53224 1.02828 -11.8567
LeftToes  -1.45701e-009 4.75788e-011 -4.21586e-011
